# xmcd CD database file
# Copyright (C) 1993-1998 Ti Kan
#
# Track frame offsets:
#	150
#	12097
#	24377
#	38460
#	51367
#	65152
#	75392
#	93225
#	111477
#	122052
#
# Disc length: 1778 seconds
#
# Revision: 1
# Processed by: cddbd v1.4b41PL1 Copyright (c) Steve Scherf et al.
# Submitted via: xmcd 2.2 PL1
#
DISCID=7706f00a
DTITLE=Virginia and the Blue Dots - Games of Love
DYEAR=1900
DGENRE=
TTITLE0=My Baby's Gone
TTITLE1=Games of Love
TTITLE2=Train
TTITLE3=You Won't Miss Me
TTITLE4=River
TTITLE5=Rockin' Cowboy
TTITLE6=Silver and Gold
TTITLE7=It's All Up To You
TTITLE8=Blue Moon
TTITLE9=Little Darlin'
EXTD=
EXTT0=
EXTT1=
EXTT2=
EXTT3=
EXTT4=
EXTT5=
EXTT6=
EXTT7=
EXTT8=
EXTT9=
PLAYORDER=
